<svg width="39" height="39" viewBox="0 0 39 39" fill="none" xmlns="http://www.w3.org/2000/svg">
<path d="M12.5564 10.2585L6.02388 3.72598L3.72612 6.02373L32.9761 35.2737L35.2739 32.976L31.9914 29.6935C34.4274 26.8572 35.7611 23.2387 35.7484 19.4999C35.7484 12.852 31.7314 7.38873 26 4.87486V8.12486C29.8789 10.3771 32.4984 14.7012 32.4984 19.4999C32.49 22.3868 31.5363 25.1915 29.783 27.4851L27.6932 25.3954C28.6715 23.6209 29.25 21.4336 29.25 19.4999C29.25 16.622 27.9906 13.1624 26 11.3749V23.7021L22.75 20.4521V3.46436L12.5564 10.2585ZM6.5 27.6249H10.8826L22.75 35.5354V29.4465L5.04075 11.7372C4.50432 12.0057 4.05291 12.4178 3.73676 12.9276C3.4206 13.4374 3.2521 14.025 3.25 14.6249V24.3749C3.25 26.1672 4.70762 27.6249 6.5 27.6249Z" fill="#69379A"/>
</svg>
