<svg width="39" height="39" viewBox="0 0 39 39" fill="none" xmlns="http://www.w3.org/2000/svg">
<path d="M26 34.125C31.7314 31.6111 35.7484 26.1479 35.7484 19.5C35.7484 12.8521 31.7314 7.38888 26 4.875V8.125C29.8789 10.3773 32.4984 14.7014 32.4984 19.5C32.4984 24.2986 29.8789 28.6227 26 30.875V34.125Z" fill="#69379A"/>
<path d="M26 11.3751V27.6251C27.9906 25.8376 29.25 22.378 29.25 19.5001C29.25 16.6222 27.9906 13.1626 26 11.3751ZM6.5 27.6251H10.8826L22.75 35.5356V3.4646L10.8826 11.3751H6.5C4.70762 11.3751 3.25 12.8327 3.25 14.6251V24.3751C3.25 26.1675 4.70762 27.6251 6.5 27.6251Z" fill="#69379A"/>
</svg>
