<svg width="367" height="367" viewBox="0 0 367 367" fill="none" xmlns="http://www.w3.org/2000/svg">
<path d="M205.07 256C186.373 254.241 167.828 251.129 149.58 246.69C112.58 237.47 76.81 221.18 48.58 195.55C73.48 169.55 87.05 154.5 106.58 124.29C121.07 101.87 138.87 62.45 165.71 52.29C207.78 36.36 264.59 51.84 276.55 99.16C281.6 119.16 281.79 140.08 278.93 160.42C277.63 169.59 268.35 259.11 263.03 259.02C243.7 258.68 224.34 257.89 205.07 256Z" fill="#F2D4CF"/>
<path d="M318.43 281.81C285.934 306.831 246.03 320.315 205.019 320.134C164.007 319.953 124.223 306.117 91.95 280.81L140.61 258C142.099 257.296 143.551 256.515 144.96 255.66L146.08 254.96C146.48 254.71 146.87 254.45 147.26 254.18C153.399 249.945 158.43 244.296 161.93 237.71C165.93 230.16 167.25 221.82 167.31 213.32C167.31 207.6 167 201.88 166.94 196.15C166.9 192.983 166.867 189.813 166.84 186.64L168.84 187.64L174.04 190.33L204.34 195.49L235.46 200.79L236.4 232.79L236.87 248.66L248.34 253.3L257.34 256.94L318.43 281.81Z" fill="#F2A196"/>
<path d="M236.25 227.67C233.53 229.35 230.96 230.14 228.71 229.9C213.92 228.31 185.07 216.72 166.91 195.27C166.91 194.217 166.89 193.167 166.85 192.12C166.81 188.947 166.777 185.777 166.75 182.61L168.75 183.61L173.95 186.3L204.24 191.45L235.36 196.75L236.25 227.67Z" fill="#E88870"/>
<path d="M141.84 171.63C151.229 171.63 158.84 164.019 158.84 154.63C158.84 145.241 151.229 137.63 141.84 137.63C132.451 137.63 124.84 145.241 124.84 154.63C124.84 164.019 132.451 171.63 141.84 171.63Z" fill="#F2A196"/>
<path d="M147.84 169.63C157.229 169.63 164.84 162.019 164.84 152.63C164.84 143.241 157.229 135.63 147.84 135.63C138.451 135.63 130.84 143.241 130.84 152.63C130.84 162.019 138.451 169.63 147.84 169.63Z" fill="#E88870"/>
<path d="M257.34 128.88C269.08 169.57 244.13 218.75 228.8 218.75C207.8 218.75 156.8 201.98 145.06 161.29C133.32 120.6 148.93 80.3701 179.93 71.4201C210.93 62.4701 245.63 88.2001 257.34 128.88Z" fill="#F2A196"/>
<path d="M194.2 161.13C204.693 161.13 213.2 152.623 213.2 142.13C213.2 131.637 204.693 123.13 194.2 123.13C183.707 123.13 175.2 131.637 175.2 142.13C175.2 152.623 183.707 161.13 194.2 161.13Z" stroke="white" stroke-miterlimit="10"/>
<path d="M247.34 158.13C257.833 158.13 266.34 149.623 266.34 139.13C266.34 128.637 257.833 120.13 247.34 120.13C236.847 120.13 228.34 128.637 228.34 139.13C228.34 149.623 236.847 158.13 247.34 158.13Z" stroke="white" stroke-miterlimit="10"/>
<path d="M218.67 74.8C214.37 93.5 204.98 109.38 187.81 120.94C169.29 133.77 148.01 135.57 126.68 139.8C127.22 126.69 127.51 112.65 134.28 100.95C141.953 87.9732 153.159 77.4469 166.59 70.6C181.39 62.94 204.3 55.44 220.94 60.75C220.481 65.4766 219.722 70.1693 218.67 74.8V74.8Z" fill="#F2D4CF"/>
<path d="M220.42 130.78C220.34 131.13 228.34 163.13 228.34 163.13H215.84" stroke="#00214E" stroke-miterlimit="10"/>
<path d="M231.87 120.57C238.939 116.971 247.112 116.199 254.73 118.41" stroke="#00214E" stroke-miterlimit="10"/>
<path d="M176.76 124.27C181.572 121.819 186.866 120.459 192.263 120.287C197.661 120.114 203.031 121.132 207.99 123.27" stroke="#00214E" stroke-miterlimit="10"/>
<path d="M213.2 142.13L228.34 140.84" stroke="white" stroke-miterlimit="10"/>
<path d="M318.43 281.81C285.934 306.831 246.03 320.315 205.019 320.134C164.007 319.953 124.223 306.117 91.95 280.81L140.61 258C142.927 256.911 145.151 255.633 147.26 254.18C147.9 253.74 148.54 253.28 149.15 252.8C154.446 248.748 158.805 243.601 161.93 237.71C164.292 233.184 165.862 228.286 166.57 223.23C167.276 223.914 168.017 224.562 168.79 225.17C174.921 229.704 181.576 233.485 188.61 236.43C192.025 237.854 195.517 239.086 199.07 240.12C209.774 243.241 220.95 244.423 232.07 243.61C233.61 243.49 235.16 243.34 236.7 243.23L236.85 248.31V248.64L248.95 253.56L318.43 281.81Z" fill="#69379A"/>
<path d="M194.43 174.42C194.565 174.202 194.744 174.014 194.955 173.869C195.166 173.723 195.406 173.623 195.658 173.575C195.91 173.527 196.169 173.532 196.419 173.59C196.669 173.648 196.904 173.757 197.11 173.91C199.19 175.38 202.99 178.47 208.39 179.55C215.75 181.01 222.13 178.07 223.66 179.97C224.52 181.04 223.47 182.34 221.46 184.02C219.353 185.592 216.953 186.727 214.401 187.359C211.849 187.991 209.197 188.107 206.6 187.7C199.52 186.38 194.2 178.17 194.2 175.27C194.199 174.971 194.278 174.677 194.43 174.42V174.42Z" fill="white"/>
<path d="M195.16 135.78C201.26 135.83 201.26 145.16 195.16 145.21H194.88C188.78 145.16 188.78 135.83 194.88 135.78H195.16Z" fill="#00214E"/>
<path d="M245.42 135.12C251.08 135.12 251.08 143.82 245.42 143.87H245.16C239.5 143.82 239.5 135.17 245.16 135.12H245.42Z" fill="#00214E"/>
</svg>
