<svg width="368" height="367" viewBox="0 0 368 367" fill="none" xmlns="http://www.w3.org/2000/svg">
<path d="M297.09 291.18C264.594 316.201 224.69 329.685 183.679 329.504C142.667 329.323 102.883 315.487 70.6099 290.18L119.27 267.37C121.587 266.281 123.811 265.003 125.92 263.55C126.56 263.11 127.2 262.65 127.81 262.17C133.106 258.118 137.465 252.971 140.59 247.08C142.952 242.554 144.522 237.656 145.23 232.6C145.718 229.319 145.966 226.007 145.97 222.69C145.97 216.97 145.66 211.25 145.6 205.52C145.56 202.353 145.527 199.183 145.5 196.01L147.5 197.01L152.7 199.7L155.11 200.11L182.99 204.85L214.11 210.15L215.05 242.15L215.36 252.61L215.51 257.69V258L227.61 262.92L297.09 291.18Z" fill="#F2A196"/>
<path d="M215.39 255.63C211.953 256.221 208.417 255.674 205.32 254.07L145.68 205.29C145.61 203.03 145.55 205.4 145.52 203.14C145.48 199.973 145.447 196.803 145.42 193.63L147.42 194.63L152.62 197.32L155.03 197.73L182.91 202.47L214.03 207.77L214.97 239.77L215.28 250.23L215.43 255.31V255.64L215.39 255.63Z" fill="#E88870"/>
<path d="M297.09 291.18C264.594 316.201 224.69 329.685 183.679 329.504C142.667 329.323 102.883 315.487 70.6099 290.18L119.27 267.37C121.587 266.281 123.811 265.003 125.92 263.55C126.56 263.11 127.2 262.65 127.81 262.17C151.36 278.93 183.5 289.5 211.3 276.99C217.92 273.99 224 269.15 227.6 262.93L297.09 291.18Z" fill="#69379A"/>
<path d="M279.19 90.9C279.1 91.49 278.99 92.07 278.86 92.65C278.166 95.6231 277.052 98.4819 275.55 101.14L275.47 101.28C274.9 102.28 274.29 103.28 273.63 104.28C271.879 106.847 269.968 109.302 267.91 111.63L266.68 113C265.85 113.93 265.01 114.84 264.17 115.74C264.804 115.604 265.455 115.567 266.1 115.63C266.34 115.65 266.577 115.69 266.81 115.75C270 116.41 272.73 119.38 273.58 122.75C273.63 122.97 273.68 123.2 273.72 123.42C274.51 127.9 272.72 132.42 270.51 136.42C266.64 143.5 261.06 148.21 256.15 154.36C252.47 158.94 250.43 164.36 246.42 168.74L246.12 169.07L245.88 169.31C235.28 180.23 218.71 182.82 204.88 187.54C199.88 189.26 145.66 204.66 145.66 208.02C145.66 207.29 140.35 202.02 133.66 195.61C109.66 172.82 101.77 137.61 116.05 107.41C131.4 74.91 166.26 51.72 199.46 40.58C209.84 37.1 221.62 34.76 231.46 39.58C241.3 44.4 246.2 59.35 238.04 66.65C243.172 62.7669 249.556 60.912 255.97 61.44C261.894 61.8112 267.481 64.324 271.69 68.51C274.041 70.8669 275.934 73.6408 277.27 76.69C277.82 77.9553 278.278 79.2587 278.64 80.59C279.54 83.9507 279.728 87.4626 279.19 90.9Z" fill="#F2D4CF"/>
<path d="M279.19 90.9C279.1 91.49 278.99 92.07 278.86 92.65C278.166 95.6231 277.052 98.4819 275.55 101.14L275.47 101.28C274.9 102.28 274.29 103.28 273.63 104.28C271.879 106.847 269.968 109.302 267.91 111.63L266.68 113C265.85 113.93 265.01 114.84 264.17 115.74C264.804 115.604 265.455 115.567 266.1 115.63C266.34 115.65 266.577 115.69 266.81 115.75C270 116.41 272.73 119.38 273.58 122.75C273.63 122.97 273.68 123.2 273.72 123.42C274.51 127.9 272.72 132.42 270.51 136.42C266.64 143.5 261.06 148.21 256.15 154.36C252.47 158.94 250.43 164.36 246.42 168.74L246.12 169.07L245.88 169.31C241.859 163.9 239.297 157.546 238.44 150.86C236.73 137.02 237.77 121.94 237.3 107.93C237.14 103.04 236.85 97.21 238.42 92.57C238.849 91.4214 239.424 90.3325 240.13 89.33C241.97 86.3613 244.068 83.5605 246.4 80.96C249.044 78.145 252.383 76.0757 256.08 74.96C258.076 74.3927 260.122 74.0176 262.19 73.84C264.401 73.6232 266.629 73.6669 268.83 73.97C271.765 74.389 274.603 75.327 277.21 76.74C277.76 78.0053 278.218 79.3087 278.58 80.64C279.493 83.9805 279.701 87.4747 279.19 90.9Z" fill="#DAAEA8"/>
<path d="M135.66 185C145.049 185 152.66 177.389 152.66 168C152.66 158.611 145.049 151 135.66 151C126.271 151 118.66 158.611 118.66 168C118.66 177.389 126.271 185 135.66 185Z" fill="#F2A196"/>
<path d="M141.06 183.22C149.466 183.22 156.28 176.406 156.28 168C156.28 159.594 149.466 152.78 141.06 152.78C132.654 152.78 125.84 159.594 125.84 168C125.84 176.406 132.654 183.22 141.06 183.22Z" fill="#E88870"/>
<path d="M141.28 152L145.68 209L212.12 247.82C216.716 249.537 221.786 249.482 226.344 247.667C230.902 245.852 234.622 242.406 236.78 238C246.34 218.42 261.68 187.51 259.66 176C256.66 159 248.66 153 248.66 153L251.99 133.06C253.24 125.55 254.85 117.71 252.99 110.16C250.86 101.51 244.32 97.81 238.94 91.34C224.78 109.58 201.5 119.89 181.17 130.34C170.68 135.78 141.28 152 141.28 152Z" fill="#F2A196"/>
<path d="M215.81 147.1C215.73 147.44 229.17 183.22 229.17 183.22L211.23 184.1" stroke="#00214E" stroke-miterlimit="10"/>
<path d="M173.33 140.17C182.588 138.259 192.11 137.991 201.46 139.38" stroke="#00214E" stroke-miterlimit="10"/>
<path d="M232.38 140.28C238.096 138.959 243.986 138.551 249.83 139.07" stroke="#00214E" stroke-miterlimit="10"/>
<path d="M192.85 194.1C192.987 193.884 193.167 193.698 193.378 193.554C193.59 193.411 193.829 193.312 194.081 193.266C194.332 193.219 194.591 193.224 194.84 193.282C195.09 193.339 195.324 193.448 195.53 193.6C197.61 195.06 201.41 198.16 206.81 199.23C214.17 200.7 220.55 197.75 222.08 199.65C222.94 200.72 221.89 202.03 219.88 203.65C217.775 205.226 215.376 206.365 212.823 206.999C210.271 207.632 207.618 207.748 205.02 207.34C197.94 206.01 192.62 197.81 192.62 194.9C192.628 194.618 192.707 194.343 192.85 194.1V194.1Z" fill="white"/>
<path d="M190.21 151.64C196.31 151.69 196.31 161.01 190.21 161.06H189.93C183.83 161.01 183.83 151.69 189.93 151.64H190.21Z" fill="#00214E"/>
<path d="M240.47 151C246.13 151 246.13 159.7 240.47 159.74H240.22C234.55 159.74 234.55 151.04 240.22 151H240.47Z" fill="#00214E"/>
</svg>
