<svg width="367" height="367" viewBox="0 0 367 367" fill="none" xmlns="http://www.w3.org/2000/svg">
<path d="M296.41 282C263.914 307.021 224.01 320.505 182.999 320.324C141.987 320.143 102.203 306.307 69.93 281L118.59 258.19C120.907 257.101 123.131 255.823 125.24 254.37C125.88 253.93 126.52 253.47 127.13 252.99C132.426 248.938 136.785 243.791 139.91 237.9C142.272 233.374 143.842 228.476 144.55 223.42C145.038 220.139 145.286 216.827 145.29 213.51C145.29 207.79 144.98 202.07 144.92 196.34C144.88 193.167 144.847 189.997 144.82 186.83L146.82 187.83L152.02 190.52L154.43 190.93L182.31 195.67L213.43 200.97L214.37 232.97L214.68 243.43L214.83 248.51V248.84L226.93 253.76L296.41 282Z" fill="#F2A196"/>
<path d="M214.63 246.85C211.193 247.441 207.657 246.894 204.56 245.29L144.89 196.51C144.82 194.25 144.76 196.62 144.73 194.36C144.69 191.187 144.657 188.017 144.63 184.85L146.63 185.85L151.83 188.54L154.24 188.95L182.12 193.69L213.24 198.99L214.18 230.99L214.49 241.45L214.64 246.53V246.86L214.63 246.85Z" fill="#A76962"/>
<path d="M245.43 159.9C243.875 161.526 242.171 163.003 240.34 164.31C229.94 171.84 216.06 174.31 204.2 178.37C199.2 180.08 144.98 195.49 144.98 198.84C144.98 198.11 139.67 192.84 132.98 186.44C121.691 175.628 113.821 161.743 110.345 146.503C106.868 131.263 107.937 115.338 113.42 100.7C124.33 72.03 159.11 52.27 188.24 47.7C202.11 45.53 218.57 44.32 231.38 50.97C237.93 54.38 243.38 59.35 248.38 64.86C249.94 66.6 251.453 68.3767 252.92 70.19C253.55 70.95 254.17 71.71 254.78 72.48C277.55 101.08 269.48 134.63 245.43 159.9Z" fill="url(#paint0_linear_12_202)"/>
<path d="M245.43 159.9C243.875 161.526 242.171 163.003 240.34 164.31C239.913 163.566 239.529 162.798 239.19 162.01C236.55 156.01 235.19 149.5 234.19 143.01C232.633 133.565 231.568 124.046 231 114.49C230.09 99.15 223.54 91.54 236.57 79.58C241.259 75.2825 246.843 72.0789 252.92 70.2C253.55 70.96 254.17 71.72 254.78 72.49C277.55 101.08 269.48 134.63 245.43 159.9Z" fill="url(#paint1_linear_12_202)"/>
<path d="M134.98 175.85C144.369 175.85 151.98 168.239 151.98 158.85C151.98 149.461 144.369 141.85 134.98 141.85C125.591 141.85 117.98 149.461 117.98 158.85C117.98 168.239 125.591 175.85 134.98 175.85Z" fill="#F2A196"/>
<path d="M140.38 174.07C148.786 174.07 155.6 167.256 155.6 158.85C155.6 150.444 148.786 143.63 140.38 143.63C131.974 143.63 125.16 150.444 125.16 158.85C125.16 167.256 131.974 174.07 140.38 174.07Z" fill="#E88870"/>
<path d="M141.65 142.73C142.48 153.59 142.45 166.85 142.74 170.73C143.493 180.457 144.24 190.18 144.98 199.9L211.42 238.71C216.022 240.43 221.1 240.374 225.663 238.553C230.226 236.732 233.947 233.276 236.1 228.86C245.66 209.28 261 178.36 258.98 166.86C255.98 149.86 247.98 143.86 247.98 143.86L251.31 123.92C254.68 103.65 247.73 84.46 224.05 82.24C219.05 81.78 213.48 82.73 210.51 86.72C202.51 97.48 207.12 110.72 195.11 120.72C180.53 132.75 148 138 140.38 128.29C140.38 128.29 141.08 135.16 141.65 142.73Z" fill="#F2A196"/>
<path d="M191.51 185.15C196.315 190.516 202.902 193.958 210.05 194.84" stroke="#00214E" stroke-miterlimit="10"/>
<path d="M215.13 137.94C215.05 138.29 228.49 174.07 228.49 174.07L210.55 174.94" stroke="#00214E" stroke-miterlimit="10"/>
<path d="M172.65 131C181.907 129.085 191.429 128.815 200.78 130.2" stroke="#00214E" stroke-miterlimit="10"/>
<path d="M231.7 131.13C237.415 129.798 243.306 129.39 249.15 129.92" stroke="#00214E" stroke-miterlimit="10"/>
<path d="M296.41 282C263.914 307.021 224.01 320.505 182.999 320.324C141.987 320.143 102.203 306.307 69.93 281L118.59 258.19C120.907 257.101 123.131 255.823 125.24 254.37C125.88 253.93 126.52 253.47 127.13 252.99C132.426 248.938 136.785 243.791 139.91 237.9C142.272 233.374 143.842 228.476 144.55 223.42C145.256 224.104 145.997 224.752 146.77 225.36C152.902 229.894 159.556 233.675 166.59 236.62C170.005 238.045 173.497 239.276 177.05 240.31C187.754 243.431 198.93 244.613 210.05 243.8C211.59 243.68 213.14 243.53 214.68 243.42L214.83 248.5V248.83L226.93 253.75L296.41 282Z" fill="#69379A"/>
<path d="M186.28 142.24C192.38 142.24 192.38 151.62 186.28 151.67H186C179.89 151.67 179.89 142.29 186 142.24H186.27H186.28Z" fill="#00214E"/>
<path d="M236.505 142C242.165 142.05 242.165 150.7 236.505 150.75H236.245C230.585 150.75 230.585 142.05 236.245 142H236.505Z" fill="#00214E"/>
<defs>
<linearGradient id="paint0_linear_12_202" x1="108.28" y1="122.42" x2="268.26" y2="122.42" gradientUnits="userSpaceOnUse">
<stop stop-color="#16243F"/>
<stop offset="1" stop-color="#6878B1"/>
</linearGradient>
<linearGradient id="paint1_linear_12_202" x1="219.28" y1="72.92" x2="269.19" y2="152.46" gradientUnits="userSpaceOnUse">
<stop stop-color="#16243F"/>
<stop offset="1" stop-color="#6878B1"/>
</linearGradient>
</defs>
</svg>
