<svg width="230" height="230" viewBox="0 0 230 230" fill="none" xmlns="http://www.w3.org/2000/svg">
<path d="M83.9356 69.2875C79.8288 66.4116 76.7497 62.2974 75.1485 57.5463C73.5474 52.7952 73.5081 47.6565 75.0365 42.8814C76.5648 38.1064 79.5807 33.9456 83.6431 31.0073C87.7055 28.069 92.6013 26.5073 97.6148 26.5506C102.628 26.5939 107.496 28.24 111.507 31.248C115.518 34.2561 118.462 38.4685 119.908 43.2692C121.353 48.0699 121.225 53.2072 119.542 57.9299C117.859 62.6526 114.709 66.713 110.553 69.5175M39.0042 122.892C42.0203 118.887 46.2386 115.952 51.0422 114.516C55.8458 113.08 60.9828 113.218 65.7021 114.911C70.4214 116.603 74.4756 119.761 77.2717 123.923C80.0678 128.084 81.4593 133.031 81.2427 138.04C81.0261 143.049 79.2128 147.857 76.0678 151.762C72.9229 155.667 68.6113 158.463 63.7635 159.742C58.9157 161.02 53.7859 160.715 49.1242 158.87C44.4624 157.024 40.5133 153.736 37.8542 149.486" stroke="#69379A" stroke-width="6" stroke-linecap="round" stroke-linejoin="round"/>
<path d="M83.9356 69.2875C85.5169 72.2296 85.2102 77.2416 77.7544 78.1329H31.5148V117.616C31.3778 118.555 31.5039 119.514 31.8789 120.385C32.254 121.257 32.8634 122.008 33.6394 122.554C34.4153 123.1 35.3276 123.42 36.2746 123.479C37.2217 123.538 38.1665 123.333 39.0042 122.887M37.8589 149.481C37.0812 149.118 36.2169 148.983 35.3657 149.091C34.5145 149.198 33.711 149.544 33.0478 150.089C32.3847 150.633 31.8889 151.354 31.6177 152.168C31.3464 152.982 31.3108 153.856 31.5148 154.689V192.687H129.744" stroke="#69379A" stroke-width="6" stroke-linecap="round" stroke-linejoin="round"/>
<path d="M90.1121 165.087L102.34 186.362C117.041 177.67 132.058 186.401 132.058 203.454H156.481C156.481 186.401 170.08 178.47 186.266 186.401L198.5 165.078C183.411 156.419 183.401 139.5 198.5 130.817L186.266 109.557C171.724 118.191 156.481 109.576 156.481 92.4409H132.058C132.058 109.576 117.046 118.191 102.331 109.576L90.1121 130.434C105.58 139.49 104.679 156.716 90.1121 165.087V165.087Z" stroke="#69379A" stroke-width="6" stroke-linecap="round" stroke-linejoin="round"/>
<path d="M144.306 167.919C155.336 167.919 164.278 158.978 164.278 147.947C164.278 136.917 155.336 127.976 144.306 127.976C133.276 127.976 124.334 136.917 124.334 147.947C124.334 158.978 133.276 167.919 144.306 167.919Z" stroke="#69379A" stroke-width="6" stroke-linecap="round" stroke-linejoin="round"/>
<path d="M110.553 69.5175C108.311 71.3192 107.774 77.2225 116.236 78.1329H156.481V92.4408" stroke="#69379A" stroke-width="6" stroke-linecap="round" stroke-linejoin="round"/>
</svg>
