<svg width="866" height="683" viewBox="0 0 866 683" fill="none" xmlns="http://www.w3.org/2000/svg">
<path d="M487.85 656.04C635.382 656.04 754.98 646.266 754.98 634.21C754.98 622.154 635.382 612.38 487.85 612.38C340.318 612.38 220.72 622.154 220.72 634.21C220.72 646.266 340.318 656.04 487.85 656.04Z" fill="#C181FF"/>
<path d="M487.85 656.04C635.382 656.04 754.98 646.266 754.98 634.21C754.98 622.154 635.382 612.38 487.85 612.38C340.318 612.38 220.72 622.154 220.72 634.21C220.72 646.266 340.318 656.04 487.85 656.04Z" fill="#B2D4FB"/>
<path d="M433.03 490.01C594.927 490.01 726.17 390.461 726.17 267.66C726.17 144.859 594.927 45.31 433.03 45.31C271.133 45.31 139.89 144.859 139.89 267.66C139.89 390.461 271.133 490.01 433.03 490.01Z" fill="#C181FF"/>
<path opacity="0.7" d="M433.03 490.01C594.927 490.01 726.17 390.461 726.17 267.66C726.17 144.859 594.927 45.31 433.03 45.31C271.133 45.31 139.89 144.859 139.89 267.66C139.89 390.461 271.133 490.01 433.03 490.01Z" fill="white"/>
<path d="M731.78 23.87H384.16V282.23H731.78V23.87Z" fill="#C181FF"/>
<path opacity="0.55" d="M731.78 23.87H401.35V269.4H731.78V23.87Z" fill="white"/>
<path opacity="0.2" d="M395.81 23.87V272.8L401.35 269.4V23.87H395.81Z" fill="black"/>
<path opacity="0.2" d="M731.78 272.8H395.81L401.35 269.4H731.78V272.8Z" fill="white"/>
<path opacity="0.32" d="M401.35 153.05L706.46 23.87H731.78V142.05L447.09 269.4H401.35V153.05Z" fill="white"/>
<path d="M726 282.23C725.807 286.11 725.473 289.923 725 293.67C715 378.15 643.79 425.78 643.79 425.78C618.57 326.2 691.62 293.33 691.62 293.33V269.41H656.72C538.88 204.31 559.42 69.25 559.42 69.25C559.42 69.25 642.82 92.25 693.22 166.79C714.571 198.459 726.036 235.756 726.16 273.95C726.17 276.71 726.12 279.49 726 282.23Z" fill="#C181FF"/>
<path opacity="0.2" d="M726 282.23C725.807 286.11 725.473 289.923 725 293.67C715 378.15 643.79 425.78 643.79 425.78C618.57 326.2 691.62 293.33 691.62 293.33V269.41H656.72C538.88 204.31 559.42 69.25 559.42 69.25C559.42 69.25 642.82 92.25 693.22 166.79C714.571 198.459 726.036 235.756 726.16 273.95C726.17 276.71 726.12 279.49 726 282.23Z" fill="black"/>
<path opacity="0.5" d="M726 282.23C725.807 286.11 725.473 289.923 725 293.67H691.65V282.23H726Z" fill="white"/>
<path d="M667.89 343.25C667.89 343.25 691.78 306.99 694.71 300.33C694.71 300.33 703 318.37 667.89 343.25Z" fill="white"/>
<path d="M681.72 243.38C681.72 243.38 701.47 267.55 708.82 282.23C708.82 282.23 711.17 258.13 681.72 243.38Z" fill="white"/>
<path d="M323.7 607.53V490.01H318.34V607.53H280.16V626.62H284.64V611.85H318.34V626.62H323.7V611.85H357.01V626.62H362.49V607.53H323.7Z" fill="#BCBEC0"/>
<path d="M276.12 480.9H359.5V493.23H276.12C275.751 493.23 275.398 493.084 275.137 492.823C274.876 492.562 274.73 492.209 274.73 491.84V482.28C274.733 481.913 274.88 481.562 275.141 481.304C275.401 481.045 275.753 480.9 276.12 480.9V480.9Z" fill="#D1D3D4"/>
<path d="M263.4 453H381.8V482.52H263.4C262.233 482.52 261.114 482.056 260.289 481.231C259.464 480.406 259 479.287 259 478.12V457.35C259.013 456.192 259.483 455.085 260.306 454.271C261.13 453.457 262.242 453 263.4 453V453Z" fill="#BCBEC0"/>
<path d="M402.17 588.76L439.93 585.86C441.142 585.768 442.321 585.418 443.388 584.833C444.454 584.249 445.384 583.444 446.114 582.472C446.845 581.5 447.36 580.384 447.625 579.197C447.89 578.01 447.898 576.78 447.65 575.59L423.65 460.24C423.65 460.24 423.65 459.5 423.46 458.19C422.105 446.785 417.331 436.058 409.765 427.417C402.199 418.777 392.196 412.629 381.07 409.78L347 401C347 401 334.76 398 327.65 393.91C327.65 393.91 327.22 395.85 320.55 398.41L396.73 473.41L389.48 530.41L393 580.83C393.079 581.954 393.378 583.051 393.882 584.059C394.386 585.066 395.084 585.964 395.937 586.701C396.789 587.438 397.778 587.999 398.848 588.353C399.918 588.706 401.047 588.844 402.17 588.76Z" fill="#7C79A9"/>
<path opacity="0.2" d="M402.17 588.76L439.93 585.86C441.142 585.768 442.321 585.418 443.388 584.833C444.454 584.249 445.384 583.444 446.114 582.472C446.845 581.5 447.36 580.384 447.625 579.197C447.89 578.01 447.898 576.78 447.65 575.59L423.65 460.24C423.65 460.24 423.65 459.5 423.46 458.19C422.105 446.785 417.331 436.058 409.765 427.417C402.199 418.777 392.196 412.629 381.07 409.78L347 401C347 401 334.76 398 327.65 393.91C327.65 393.91 327.22 395.85 320.55 398.41L396.73 473.41L389.48 530.41L393 580.83C393.079 581.954 393.378 583.051 393.882 584.059C394.386 585.066 395.084 585.964 395.937 586.701C396.789 587.438 397.778 587.999 398.848 588.353C399.918 588.706 401.047 588.844 402.17 588.76Z" fill="black"/>
<path d="M278.37 390.52L272.37 414.86C272.37 414.86 263.8 442.21 287.94 455.08C287.94 455.08 295.85 460.55 316.02 460.23H364.57L320.12 567.38C319.807 568.134 319.647 568.943 319.649 569.76C319.652 570.577 319.817 571.385 320.136 572.137C320.454 572.889 320.919 573.571 321.504 574.141C322.088 574.712 322.78 575.16 323.54 575.46L362.91 591C363.689 591.306 364.522 591.45 365.358 591.423C366.194 591.396 367.016 591.198 367.773 590.842C368.531 590.487 369.207 589.98 369.762 589.354C370.317 588.728 370.738 587.995 371 587.2L407 476.31C407 476.31 420.37 450.93 404.69 430.03C399.772 423.615 392.982 418.888 385.26 416.5L347 404.24C347 404.24 327.6 400.41 326.27 395.24C326.25 395.24 311.94 411.55 278.37 390.52Z" fill="#7C79A9"/>
<path d="M301.32 270.19C301.245 270.445 301.253 270.717 301.343 270.967C301.433 271.217 301.6 271.431 301.82 271.58L319.75 283.94C319.75 283.94 324.8 288.23 326.06 282.68L334.55 262.63C331.197 260.165 328.442 256.976 326.49 253.3L305.11 257.18L301.32 270.19Z" fill="#F9B499"/>
<path d="M334.55 262.63L331.26 270.41C331.26 270.41 322.31 260.41 323.99 251.63L329.59 253.3L334.55 262.63Z" fill="#F7A48B"/>
<path d="M363 234.21C362.93 234.21 362.87 234.21 362.8 234.21C362.85 233.33 362.88 232.43 362.88 231.53C362.88 213.06 353.61 198.08 342.18 198.08C330.75 198.08 321.48 213.08 321.48 231.53C321.48 249.98 330.78 265 342.22 265C350.56 265 357.75 257 361.02 245.53C361.576 246.015 362.282 246.294 363.02 246.32C365.32 246.32 367.19 243.61 367.19 240.26C367.19 236.91 365.34 234.21 363 234.21Z" fill="#F9B499"/>
<path d="M349.79 204.17C349.79 204.17 350.04 232.7 332.37 251.17C332.37 251.17 326.75 271.56 302.67 272.22C302.67 272.22 323.53 265.37 329.59 253.35C319.033 256.237 309.392 261.784 301.59 269.46C301.59 269.46 277.59 269.1 273.34 293.59C273.34 293.59 269.58 312.14 276.55 330.06C276.55 330.06 226.42 316.79 250.99 280.77C250.99 280.77 238.54 291.39 236.72 305.67C236.72 305.67 232.4 285.25 257.63 270.67C257.63 270.67 286.68 258.23 291.32 229.34C291.32 229.34 290.32 176.98 343.11 195.9C343.11 195.9 361.26 188.68 367.25 208.1C367.25 208.1 363.9 203.1 360.91 203.1C362.634 204.987 363.874 207.264 364.523 209.735C365.173 212.207 365.213 214.799 364.64 217.29C364.64 217.29 363.45 207.4 355.83 206.37C355.83 206.37 357.92 213.68 353.83 218.79C353.77 218.73 357.13 209 349.79 204.17Z" fill="#7C79A9"/>
<path d="M276.7 388.69C276.599 388.918 276.587 389.177 276.666 389.414C276.746 389.65 276.911 389.849 277.13 389.97L287.35 395.88C293.871 399.717 301.336 401.654 308.9 401.47C315.35 401.25 323.47 399.94 327.9 394.04L331.59 350.43C331.59 350.43 352.5 339.48 345.53 316.07C345.53 316.07 336.41 290.37 326.03 282.68C326.03 282.68 325.74 288.1 319.72 283.94L301.85 271.63C301.613 271.467 301.433 271.233 301.336 270.962C301.239 270.691 301.23 270.396 301.31 270.12L301.52 269.41C301.52 269.41 273.33 267.72 272.33 302.36C272.33 302.36 274.33 320.3 277.56 339.97C277.59 340 283.61 371.78 276.7 388.69Z" fill="#C181FF"/>
<path d="M486.19 350.88L489.3 355.41L501.58 332.34L505.23 334.05L491.45 360.39L505.89 382.8H500.58L488.8 364.21L478.76 382.8H474.52L486.81 360.89L483.82 355.17L486.19 350.88Z" fill="#C181FF"/>
<path d="M518.68 338.99V350.57H608.97V382.8H621.74V338.99H518.68Z" fill="#A7A9AC"/>
<path d="M608.97 350.57H518.68V357.56H608.97V350.57Z" fill="#D1D3D4"/>
<path d="M596.2 334.03H545.15V338.99H596.2V334.03Z" fill="#7C79A9"/>
<path opacity="0.2" d="M280.65 308.37C280.65 308.37 281.28 343.49 316.01 366.17L283.81 312.59L280.65 308.37Z" fill="black"/>
<path opacity="0.2" d="M364.56 460.24H379.63C379.63 460.24 371.69 468 364.56 460.24Z" fill="black"/>
<path opacity="0.2" d="M391.89 565.18L389.46 530.35L406.98 476.31L391.89 565.18Z" fill="black"/>
<path d="M329.24 577.72C329.24 577.72 326.61 590.91 324.07 593.43C324.07 593.43 314.8 606.34 329.24 613.49L362 628.6C363.197 629.173 364.541 629.365 365.85 629.15C366.899 629.029 367.862 628.511 368.541 627.702C369.22 626.893 369.563 625.854 369.5 624.8C369.51 623.678 369.274 622.568 368.809 621.547C368.345 620.526 367.662 619.619 366.81 618.89L349.41 603.49L353.66 587.38L329.24 577.72Z" fill="#F9B499"/>
<path d="M329.24 577.72L327.42 585.31L345.34 584.08L329.24 577.72Z" fill="#F7A48B"/>
<path d="M410.55 588.12C412.082 594.982 413.194 601.932 413.88 608.93C413.88 608.93 415.11 623.54 428.7 622.51L464.61 618.32C465.532 618.22 466.416 617.901 467.19 617.39C468.6 616.39 470.4 614.61 469.52 611.85C469.179 610.877 468.584 610.014 467.796 609.349C467.008 608.684 466.056 608.242 465.04 608.07L442.4 603.74C441.987 603.662 441.603 603.476 441.287 603.2C440.97 602.924 440.733 602.568 440.6 602.17L435.27 586.22L410.55 588.12Z" fill="#F9B499"/>
<path d="M410.55 588.12L412.51 598.28L427.05 586.85L410.55 588.12Z" fill="#F7A48B"/>
<path d="M626.23 401.39H487.85V642.83H626.23V401.39Z" fill="#BCBEC0"/>
<path d="M612.22 407.54H503.41V467.71H612.22V407.54Z" fill="#D1D3D4"/>
<path opacity="0.2" d="M612.22 407.54H503.41V413.14H612.22V407.54Z" fill="black"/>
<path opacity="0.2" d="M509.7 413.15H503.41V467.72H509.7V413.15Z" fill="white"/>
<path d="M611.44 473.31H502.63V550.4H611.44V473.31Z" fill="#D1D3D4"/>
<path opacity="0.2" d="M611.44 473.31H502.63V478.91H611.44V473.31Z" fill="black"/>
<path opacity="0.2" d="M508.92 478.92H502.63V550.4H508.92V478.92Z" fill="white"/>
<path d="M611.44 557.12H502.63V634.21H611.44V557.12Z" fill="#D1D3D4"/>
<path opacity="0.2" d="M611.44 557.12H502.63V562.72H611.44V557.12Z" fill="black"/>
<path opacity="0.2" d="M508.92 562.73H502.63V634.21H508.92V562.73Z" fill="white"/>
<path opacity="0.2" d="M612.22 638.92H502.63V642.84H612.22V638.92Z" fill="black"/>
<path d="M588.22 92.08C588.22 92.08 583.65 129.48 596.98 154.92C597 154.92 591.39 101.27 588.22 92.08Z" fill="white"/>
<path d="M351 358.9L340.16 361.9C340.16 361.9 343 354.76 348.31 355.33L351 358.9Z" fill="#F7A48B"/>
<path d="M641.35 395.24H478.76V407.54H641.35V395.24Z" fill="#D1D3D4"/>
<path d="M412.16 323.52L455.65 371.52L463 375.9L459.23 369.49L416 320.1C415.765 319.83 415.476 319.613 415.152 319.461C414.828 319.31 414.475 319.228 414.118 319.22C413.76 319.213 413.405 319.28 413.074 319.418C412.744 319.555 412.446 319.761 412.2 320.02V320.02C411.75 320.489 411.496 321.112 411.488 321.762C411.481 322.412 411.721 323.041 412.16 323.52V323.52Z" fill="#7C79A9"/>
<path d="M647.31 382.8H359.5V395.25H647.31V382.8Z" fill="#BCBEC0"/>
<path d="M351 358.9C348.66 359.25 313.4 287.9 313.4 287.9C313.4 287.9 302.2 265.99 283.77 281.43C283.77 281.43 267.59 293.63 283.77 312.55L321.48 375.29C321.48 375.29 335.06 400.43 364.19 389.23L431.41 368.81C431.41 368.81 454.32 374.04 452.33 354.37C452.33 354.37 448.84 339.93 434.65 344.17C434.65 344.17 425.94 334.46 424.65 345.66L425.15 351.88C425.15 351.88 373.94 355.41 351 358.9Z" fill="#F9B499"/>
<path d="M492.45 321.38L457.6 382.8H468.55L499.92 326.03L492.45 321.38Z" fill="white"/>
<path d="M547.99 264.54L567.37 273.28V334.03H572.81V268.56L550.12 258.87L587.46 158.17L573.28 152.74L513.72 316.06L527.66 321.38L547.99 264.54Z" fill="#7C79A9"/>
<path opacity="0.2" d="M547.99 264.54L567.37 273.28V334.03H572.81V268.56L550.12 258.87L587.46 158.17L573.28 152.74L513.72 316.06L527.66 321.38L547.99 264.54Z" fill="black"/>
<path d="M522.04 319.24L513.72 316.06L573.28 152.74L581.32 155.82L522.04 319.24Z" fill="#7C79A9"/>
<path d="M357.27 73.93V177.62C357.271 178.376 357.124 179.126 356.835 179.825C356.547 180.524 356.124 181.16 355.59 181.696C355.056 182.232 354.422 182.657 353.724 182.948C353.025 183.238 352.276 183.389 351.52 183.39H212.37C210.841 183.387 209.374 182.779 208.293 181.697C207.211 180.616 206.603 179.149 206.6 177.62V73.93C206.603 72.4014 207.212 70.9364 208.294 69.8565C209.375 68.7765 210.841 68.17 212.37 68.17H351.52C352.276 68.17 353.024 68.3191 353.723 68.6087C354.421 68.8982 355.055 69.3227 355.589 69.8577C356.123 70.3927 356.547 71.0277 356.835 71.7265C357.124 72.4253 357.271 73.1741 357.27 73.93Z" fill="white"/>
<path d="M357.27 73.93V90H206.6V74C206.603 72.4714 207.212 71.0064 208.294 69.9265C209.375 68.8465 210.841 68.24 212.37 68.24H351.52C353.035 68.2399 354.488 68.8375 355.565 69.9029C356.641 70.9683 357.254 72.4154 357.27 73.93Z" fill="#C181FF"/>
<path opacity="0.15" d="M233.58 101.34H214.82V120.1H233.58V101.34Z" fill="#C181FF"/>
<g opacity="0.15">
<path d="M233.58 126.36H214.82C214.666 126.36 214.519 126.299 214.41 126.19C214.301 126.081 214.24 125.934 214.24 125.78C214.24 125.626 214.301 125.479 214.41 125.37C214.519 125.261 214.666 125.2 214.82 125.2H233.58C233.734 125.2 233.881 125.261 233.99 125.37C234.099 125.479 234.16 125.626 234.16 125.78C234.16 125.934 234.099 126.081 233.99 126.19C233.881 126.299 233.734 126.36 233.58 126.36V126.36Z" fill="#C181FF"/>
</g>
<g opacity="0.15">
<path d="M233.58 134.57H214.82C214.666 134.57 214.519 134.509 214.41 134.4C214.301 134.291 214.24 134.144 214.24 133.99C214.24 133.836 214.301 133.689 214.41 133.58C214.519 133.471 214.666 133.41 214.82 133.41H233.58C233.734 133.41 233.881 133.471 233.99 133.58C234.099 133.689 234.16 133.836 234.16 133.99C234.16 134.144 234.099 134.291 233.99 134.4C233.881 134.509 233.734 134.57 233.58 134.57V134.57Z" fill="#C181FF"/>
</g>
<g opacity="0.15">
<path d="M233.58 142.78H214.82C214.666 142.78 214.519 142.719 214.41 142.61C214.301 142.501 214.24 142.354 214.24 142.2C214.24 142.046 214.301 141.899 214.41 141.79C214.519 141.681 214.666 141.62 214.82 141.62H233.58C233.734 141.62 233.881 141.681 233.99 141.79C234.099 141.899 234.16 142.046 234.16 142.2C234.16 142.354 234.099 142.501 233.99 142.61C233.881 142.719 233.734 142.78 233.58 142.78V142.78Z" fill="#C181FF"/>
</g>
<path opacity="0.15" d="M357.27 90V177.64C357.271 178.396 357.124 179.146 356.835 179.845C356.547 180.544 356.124 181.18 355.59 181.716C355.056 182.252 354.422 182.677 353.724 182.968C353.025 183.258 352.276 183.409 351.52 183.41H244.14V90H357.27Z" fill="#C181FF"/>
<path opacity="0.15" d="M282.65 103.65H252.67C252.079 103.65 251.6 104.129 251.6 104.72V111.45C251.6 112.041 252.079 112.52 252.67 112.52H282.65C283.241 112.52 283.72 112.041 283.72 111.45V104.72C283.72 104.129 283.241 103.65 282.65 103.65Z" fill="#C181FF"/>
<path d="M344.04 101.34H291.52V128.31H344.04V101.34Z" fill="white"/>
<path opacity="0.15" d="M276.8 120.1H256.39V122.98H276.8V120.1Z" fill="#C181FF"/>
<path d="M344.04 133.99H253.01V138.78H344.04V133.99Z" fill="white"/>
<path d="M343.33 144.99H253.01V149.43H343.33V144.99Z" fill="white"/>
<path d="M343.33 156.52H253.01V160.96H343.33V156.52Z" fill="white"/>
<path d="M343.33 168.06H253.01V172.5H343.33V168.06Z" fill="white"/>
<path d="M225.34 221.97H113.8C112.138 221.97 110.79 223.318 110.79 224.98V313.82C110.79 315.482 112.138 316.83 113.8 316.83H225.34C227.002 316.83 228.35 315.482 228.35 313.82V224.98C228.35 223.318 227.002 221.97 225.34 221.97Z" fill="white"/>
<path opacity="0.15" d="M220.49 298.21H119.23V300.54H220.49V298.21Z" fill="#C181FF"/>
<path d="M207.1 292.68H202.74V306.07H207.1V292.68Z" fill="white"/>
<path opacity="0.15" d="M218.99 230.41H141.97C141.142 230.41 140.47 231.082 140.47 231.91V284.78C140.47 285.608 141.142 286.28 141.97 286.28H218.99C219.818 286.28 220.49 285.608 220.49 284.78V231.91C220.49 231.082 219.818 230.41 218.99 230.41Z" fill="#C181FF"/>
<path opacity="0.15" d="M134.94 233.32H119.23V242.92H134.94V233.32Z" fill="#C181FF"/>
<path opacity="0.15" d="M134.94 251.65H119.23V261.25H134.94V251.65Z" fill="#C181FF"/>
<path opacity="0.15" d="M134.94 269.98H119.23V279.58H134.94V269.98Z" fill="#C181FF"/>
<path d="M180.48 278.27C191.487 278.27 200.41 269.347 200.41 258.34C200.41 247.333 191.487 238.41 180.48 238.41C169.473 238.41 160.55 247.333 160.55 258.34C160.55 269.347 169.473 278.27 180.48 278.27Z" fill="white"/>
<path opacity="0.15" d="M177.43 251.65V265.91L190.52 258.78L177.43 251.65Z" fill="#C181FF"/>
<path d="M177.82 356.67V401.11H236.4V356.67L211.48 372.15H202.51L177.82 356.67Z" fill="white"/>
<path d="M177.82 356.67H236.4L211.48 372.15H202.51L177.82 356.67Z" fill="white"/>
<path opacity="0.15" d="M177.82 356.67H236.4L211.48 372.15H202.51L177.82 356.67Z" fill="#C181FF"/>
<path d="M188.82 339.61V363.57L202.51 372.15H211.48L226.39 362.89V339.61H188.82Z" fill="white"/>
<g opacity="0.15">
<path d="M222.93 345.36H192.86C192.777 345.371 192.692 345.364 192.612 345.34C192.532 345.315 192.457 345.274 192.394 345.218C192.331 345.163 192.281 345.095 192.246 345.018C192.211 344.942 192.193 344.859 192.193 344.775C192.193 344.691 192.211 344.608 192.246 344.532C192.281 344.455 192.331 344.387 192.394 344.332C192.457 344.276 192.532 344.235 192.612 344.21C192.692 344.186 192.777 344.179 192.86 344.19H222.93C223.072 344.209 223.202 344.278 223.297 344.386C223.391 344.493 223.443 344.632 223.443 344.775C223.443 344.918 223.391 345.057 223.297 345.164C223.202 345.272 223.072 345.341 222.93 345.36V345.36Z" fill="#C181FF"/>
</g>
<g opacity="0.15">
<path d="M222.93 352.54H192.86C192.706 352.54 192.559 352.479 192.45 352.37C192.341 352.261 192.28 352.114 192.28 351.96C192.28 351.806 192.341 351.659 192.45 351.55C192.559 351.441 192.706 351.38 192.86 351.38H222.93C223.084 351.38 223.231 351.441 223.34 351.55C223.449 351.659 223.51 351.806 223.51 351.96C223.51 352.114 223.449 352.261 223.34 352.37C223.231 352.479 223.084 352.54 222.93 352.54V352.54Z" fill="#C181FF"/>
</g>
<g opacity="0.15">
<path d="M222.93 359.72H192.86C192.706 359.72 192.559 359.659 192.45 359.55C192.341 359.441 192.28 359.294 192.28 359.14C192.28 358.986 192.341 358.839 192.45 358.73C192.559 358.621 192.706 358.56 192.86 358.56H222.93C223.084 358.56 223.231 358.621 223.34 358.73C223.449 358.839 223.51 358.986 223.51 359.14C223.51 359.294 223.449 359.441 223.34 359.55C223.231 359.659 223.084 359.72 222.93 359.72V359.72Z" fill="#C181FF"/>
</g>
<g opacity="0.15">
<path d="M222.93 366.9H192.86C192.706 366.9 192.559 366.839 192.45 366.73C192.341 366.621 192.28 366.474 192.28 366.32C192.28 366.166 192.341 366.019 192.45 365.91C192.559 365.801 192.706 365.74 192.86 365.74H222.93C223.084 365.74 223.231 365.801 223.34 365.91C223.449 366.019 223.51 366.166 223.51 366.32C223.51 366.474 223.449 366.621 223.34 366.73C223.231 366.839 223.084 366.9 222.93 366.9V366.9Z" fill="#C181FF"/>
</g>
</svg>
