<svg width="230" height="230" viewBox="0 0 230 230" fill="none" xmlns="http://www.w3.org/2000/svg">
<mask id="mask0_10_151" style="mask-type:alpha" maskUnits="userSpaceOnUse" x="17" y="17" width="196" height="196">
<path d="M86.25 19.1667H28.75C26.2083 19.1667 23.7708 20.1764 21.9736 21.9736C20.1763 23.7708 19.1667 26.2084 19.1667 28.75V86.25C19.1667 88.7917 20.1763 91.2292 21.9736 93.0265C23.7708 94.8237 26.2083 95.8334 28.75 95.8334H86.25C88.7917 95.8334 91.2292 94.8237 93.0264 93.0265C94.8237 91.2292 95.8333 88.7917 95.8333 86.25V28.75C95.8333 26.2084 94.8237 23.7708 93.0264 21.9736C91.2292 20.1764 88.7917 19.1667 86.25 19.1667V19.1667ZM86.25 134.167H28.75C26.2083 134.167 23.7708 135.176 21.9736 136.974C20.1763 138.771 19.1667 141.208 19.1667 143.75V201.25C19.1667 203.792 20.1763 206.229 21.9736 208.026C23.7708 209.824 26.2083 210.833 28.75 210.833H86.25C88.7917 210.833 91.2292 209.824 93.0264 208.026C94.8237 206.229 95.8333 203.792 95.8333 201.25V143.75C95.8333 141.208 94.8237 138.771 93.0264 136.974C91.2292 135.176 88.7917 134.167 86.25 134.167ZM201.25 19.1667H143.75C141.208 19.1667 138.771 20.1764 136.974 21.9736C135.176 23.7708 134.167 26.2084 134.167 28.75V86.25C134.167 88.7917 135.176 91.2292 136.974 93.0265C138.771 94.8237 141.208 95.8334 143.75 95.8334H201.25C203.792 95.8334 206.229 94.8237 208.026 93.0265C209.824 91.2292 210.833 88.7917 210.833 86.25V28.75C210.833 26.2084 209.824 23.7708 208.026 21.9736C206.229 20.1764 203.792 19.1667 201.25 19.1667V19.1667Z" fill="white" stroke="white" stroke-width="4" stroke-linejoin="round"/>
<path d="M134.167 134.167H210.833M172.5 172.5H210.833M134.167 210.833H210.833" stroke="white" stroke-width="4" stroke-linecap="round" stroke-linejoin="round"/>
</mask>
<g mask="url(#mask0_10_151)">
<path d="M0 0H230V230H0V0Z" fill="#69379A"/>
</g>
</svg>
