<svg width="230" height="230" viewBox="0 0 230 230" fill="none" xmlns="http://www.w3.org/2000/svg">
<path d="M115 14.375C95.0982 14.375 75.6434 20.2766 59.0957 31.3334C42.548 42.3902 29.6507 58.1057 22.0346 76.4925C14.4185 94.8793 12.4258 115.112 16.3085 134.631C20.1911 154.15 29.7747 172.08 43.8474 186.153C57.92 200.225 75.8497 209.809 95.369 213.692C114.888 217.574 135.121 215.581 153.508 207.965C171.894 200.349 187.61 187.452 198.667 170.904C209.723 154.357 215.625 134.902 215.625 115C215.595 88.3219 204.983 62.7453 186.119 43.881C167.255 25.0167 141.678 14.4054 115 14.375ZM115 201.25C92.1251 201.25 70.187 192.163 54.012 175.988C37.837 159.813 28.75 137.875 28.75 115C28.75 92.1251 37.837 70.1871 54.012 54.012C70.187 37.837 92.1251 28.75 115 28.75V115L175.957 175.957C167.963 183.98 158.463 190.344 148.002 194.685C137.541 199.025 126.326 201.256 115 201.25Z" fill="#69379A"/>
</svg>
